<svg xmlns="http://www.w3.org/2000/svg" xmlns:svg="http://www.w3.org/2000/svg" id="svg2" width="371.933" height="189.142" version="1.1" viewBox="0 0 371.933 189.142" xml:space="preserve"><g id="g8" transform="matrix(1.3333333,0,0,1.3333333,0,4.0618866e-6)"><g id="g10"><text transform="translate(60.106605,141.8566)" style="font-variant:normal;font-weight:700;font-size:131.25px;font-family:'Bitstream Vera Sans';-inkscape-font-specification:BitstreamVeraSans-Bold;writing-mode:lr-tb;fill:#b7b7b7;fill-opacity:1;fill-rule:nonzero;stroke:none" id="text14"><tspan id="tspan12" x="0 121.406 154.219" y="0">mlr</tspan></text><path d="m 48.105,48.105 h 15 v 15 h -15 z" style="fill:#03638e;fill-opacity:1;fill-rule:evenodd;stroke:none" id="path16"/><path d="m 29.355,48.105 h 15 v 15 h -15 z" style="fill:#03638e;fill-opacity:1;fill-rule:evenodd;stroke:none" id="path18"/><path d="m 10.605,48.105 h 15 v 15 h -15 z" style="fill:#03638e;fill-opacity:1;fill-rule:evenodd;stroke:none" id="path20"/><path d="m 48.105,29.355 h 15 v 15 h -15 z" style="fill:#03638e;fill-opacity:1;fill-rule:evenodd;stroke:none" id="path22"/><path d="m 29.355,29.355 h 15 v 15 h -15 z" style="fill:#03638e;fill-opacity:1;fill-rule:evenodd;stroke:none" id="path24"/><path d="m 10.605,29.355 h 15 v 15 h -15 z" style="fill:#03638e;fill-opacity:1;fill-rule:evenodd;stroke:none" id="path26"/><path d="M 10.605,0 21.215,10.605 10.605,21.215 0,10.605 Z" style="fill:#03638e;fill-opacity:1;fill-rule:evenodd;stroke:none" id="path28"/><path d="m 48.105,10.605 h 15 v 15 h -15 z" style="fill:#03638e;fill-opacity:1;fill-rule:evenodd;stroke:none" id="path30"/><path d="m 29.355,10.605 h 15 v 15 h -15 z" style="fill:#03638e;fill-opacity:1;fill-rule:evenodd;stroke:none" id="path32"/></g></g></svg>